<svg width="40" height="40" viewBox="0 0 40 40" fill="none" xmlns="http://www.w3.org/2000/svg">
<g filter="url(#filter0_d_93_70)">
<path d="M27.4386 20.9999C27.2186 20.9999 26.9886 20.9299 26.7686 20.8799C26.3231 20.7817 25.8853 20.6514 25.4586 20.4899C24.9947 20.3211 24.4848 20.3299 24.0269 20.5145C23.5691 20.6991 23.1957 21.0465 22.9786 21.4899L22.7586 21.9399C21.7846 21.398 20.8896 20.7251 20.0986 19.9399C19.3134 19.1489 18.6405 18.2539 18.0986 17.2799L18.5186 16.9999C18.962 16.7828 19.3094 16.4094 19.494 15.9516C19.6786 15.4937 19.6874 14.9838 19.5186 14.5199C19.3599 14.0923 19.2296 13.6547 19.1286 13.2099C19.0786 12.9899 19.0386 12.7599 19.0086 12.5299C18.8872 11.8255 18.5183 11.1876 17.9683 10.7311C17.4183 10.2746 16.7233 10.0295 16.0086 10.0399H13.0086C12.5777 10.0358 12.1509 10.1247 11.7573 10.3004C11.3638 10.4761 11.0127 10.7346 10.7281 11.0582C10.4434 11.3817 10.2318 11.7629 10.1076 12.1756C9.98348 12.5883 9.94972 13.0229 10.0086 13.4499C10.5414 17.6392 12.4547 21.5317 15.4463 24.5125C18.4379 27.4933 22.3373 29.3924 26.5286 29.9099H26.9086C27.6461 29.9109 28.358 29.6404 28.9086 29.1499C29.225 28.8669 29.4777 28.52 29.6501 28.1322C29.8225 27.7443 29.9106 27.3243 29.9086 26.8999V23.8999C29.8964 23.2053 29.6434 22.5364 29.193 22.0075C28.7425 21.4786 28.1225 21.1225 27.4386 20.9999ZM27.9386 26.9999C27.9385 27.1419 27.908 27.2822 27.8494 27.4115C27.7908 27.5408 27.7053 27.6562 27.5986 27.7499C27.4869 27.8463 27.3562 27.9184 27.215 27.9615C27.0738 28.0045 26.9252 28.0176 26.7786 27.9999C23.0335 27.5197 19.5549 25.8064 16.8914 23.1302C14.2278 20.454 12.531 16.9672 12.0686 13.2199C12.0527 13.0734 12.0667 12.9252 12.1096 12.7843C12.1526 12.6433 12.2237 12.5126 12.3186 12.3999C12.4123 12.2932 12.5277 12.2077 12.657 12.1491C12.7863 12.0905 12.9267 12.06 13.0686 12.0599H16.0686C16.3012 12.0547 16.5283 12.1307 16.7108 12.2749C16.8933 12.4191 17.0198 12.6224 17.0686 12.8499C17.1086 13.1232 17.1586 13.3932 17.2186 13.6599C17.3342 14.187 17.4879 14.705 17.6786 15.2099L16.2786 15.8599C16.1589 15.9148 16.0513 15.9928 15.9618 16.0895C15.8723 16.1861 15.8028 16.2995 15.7573 16.4231C15.7118 16.5466 15.6911 16.678 15.6965 16.8096C15.7019 16.9412 15.7332 17.0704 15.7886 17.1899C17.2278 20.2726 19.7059 22.7507 22.7886 24.1899C23.0321 24.2899 23.3052 24.2899 23.5486 24.1899C23.6733 24.1453 23.788 24.0763 23.8858 23.9871C23.9837 23.8978 24.0628 23.79 24.1186 23.6699L24.7386 22.2699C25.2556 22.4547 25.7832 22.6084 26.3186 22.7299C26.5853 22.7899 26.8553 22.8399 27.1286 22.8799C27.3561 22.9287 27.5594 23.0552 27.7036 23.2377C27.8478 23.4202 27.9238 23.6473 27.9186 23.8799L27.9386 26.9999Z" fill="#FC9900"/>
</g>
<defs>
<filter id="filter0_d_93_70" x="0.760957" y="0.820039" width="38.3687" height="38.3091" filterUnits="userSpaceOnUse" color-interpolation-filters="sRGB">
<feFlood flood-opacity="0" result="BackgroundImageFix"/>
<feColorMatrix in="SourceAlpha" type="matrix" values="0 0 0 0 0 0 0 0 0 0 0 0 0 0 0 0 0 0 127 0" result="hardAlpha"/>
<feOffset/>
<feGaussianBlur stdDeviation="4.60976"/>
<feComposite in2="hardAlpha" operator="out"/>
<feColorMatrix type="matrix" values="0 0 0 0 0.933333 0 0 0 0 0.623529 0 0 0 0 0.219608 0 0 0 1 0"/>
<feBlend mode="normal" in2="BackgroundImageFix" result="effect1_dropShadow_93_70"/>
<feBlend mode="normal" in="SourceGraphic" in2="effect1_dropShadow_93_70" result="shape"/>
</filter>
</defs>
</svg>
